<svg width="204" height="40" viewBox="0 0 204 40" fill="none" xmlns="http://www.w3.org/2000/svg">
<path d="M156 21.5L159 24.5L162 21.5" stroke="black" stroke-linecap="round" stroke-linejoin="round"/>
<path d="M139.13 25.798L140.138 25.816V28.426H139.13V25.798ZM139.22 25.6V14.638L140.03 14.512V25.636L139.22 25.6ZM139.13 11.83H140.138V14.404L139.13 14.53V11.83ZM143.144 16.402C143 16.234 142.808 16.072 142.568 15.916C142.328 15.76 142.058 15.622 141.758 15.502C141.458 15.37 141.128 15.268 140.768 15.196C140.42 15.112 140.054 15.07 139.67 15.07C138.686 15.07 137.96 15.256 137.492 15.628C137.024 16 136.79 16.51 136.79 17.158C136.79 17.614 136.91 17.974 137.15 18.238C137.39 18.502 137.756 18.718 138.248 18.886C138.752 19.054 139.388 19.228 140.156 19.408C141.044 19.6 141.812 19.834 142.46 20.11C143.108 20.386 143.606 20.758 143.954 21.226C144.302 21.682 144.476 22.294 144.476 23.062C144.476 23.674 144.356 24.208 144.116 24.664C143.888 25.108 143.564 25.48 143.144 25.78C142.724 26.068 142.232 26.284 141.668 26.428C141.104 26.56 140.492 26.626 139.832 26.626C139.184 26.626 138.548 26.56 137.924 26.428C137.312 26.284 136.73 26.08 136.178 25.816C135.626 25.552 135.11 25.222 134.63 24.826L135.404 23.458C135.596 23.662 135.842 23.866 136.142 24.07C136.454 24.262 136.802 24.442 137.186 24.61C137.582 24.778 138.008 24.916 138.464 25.024C138.92 25.12 139.388 25.168 139.868 25.168C140.78 25.168 141.488 25.006 141.992 24.682C142.496 24.346 142.748 23.86 142.748 23.224C142.748 22.744 142.604 22.36 142.316 22.072C142.04 21.784 141.626 21.544 141.074 21.352C140.522 21.16 139.85 20.968 139.058 20.776C138.194 20.56 137.468 20.326 136.88 20.074C136.292 19.81 135.848 19.468 135.548 19.048C135.26 18.628 135.116 18.082 135.116 17.41C135.116 16.594 135.314 15.904 135.71 15.34C136.106 14.776 136.652 14.35 137.348 14.062C138.044 13.774 138.83 13.63 139.706 13.63C140.282 13.63 140.816 13.69 141.308 13.81C141.812 13.93 142.28 14.098 142.712 14.314C143.144 14.53 143.54 14.788 143.9 15.088L143.144 16.402Z" fill="#1D1F22"/>
<path d="M203.561 14.8736C203.182 14.4103 202.592 14.1287 201.982 14.1287H189.159L188.759 12.639C188.527 11.773 187.728 11.1689 186.801 11.1689H184.653C184.295 11.1689 184 11.4505 184 11.7935C184 12.1356 184.294 12.418 184.653 12.418H186.801C187.117 12.418 187.39 12.6194 187.474 12.9214L190.043 22.7077C190.275 23.5737 191.075 24.1778 192.002 24.1778H200.403C201.329 24.1778 202.151 23.5737 202.361 22.7077L203.94 16.5057C204.088 15.941 203.962 15.3369 203.561 14.8736L203.561 14.8736ZM202.657 16.2225L201.077 22.4245C200.993 22.7265 200.719 22.9279 200.404 22.9279H192.002C191.686 22.9279 191.412 22.7265 191.328 22.4245L189.496 15.3976H201.983C202.194 15.3976 202.404 15.4982 202.531 15.6595C202.657 15.8199 202.719 16.0213 202.657 16.2227L202.657 16.2225Z" fill="#43464E"/>
<path d="M192.444 24.9814C191.244 24.9814 190.255 25.9276 190.255 27.0751C190.255 28.2226 191.244 29.1688 192.444 29.1688C193.644 29.1696 194.634 28.2234 194.634 27.0757C194.634 25.928 193.644 24.9812 192.444 24.9812V24.9814ZM192.444 27.9011C191.96 27.9011 191.581 27.5385 191.581 27.0752C191.581 26.6119 191.96 26.2493 192.444 26.2493C192.929 26.2493 193.308 26.6119 193.308 27.0752C193.307 27.5188 192.907 27.9011 192.444 27.9011Z" fill="#43464E"/>
<path d="M199.688 24.9814C198.487 24.9814 197.498 25.9277 197.498 27.0752C197.498 28.2226 198.488 29.1689 199.688 29.1689C200.888 29.1689 201.877 28.2226 201.877 27.0752C201.856 25.9284 200.888 24.9814 199.688 24.9814ZM199.688 27.9011C199.203 27.9011 198.824 27.5385 198.824 27.0752C198.824 26.612 199.203 26.2493 199.688 26.2493C200.172 26.2493 200.551 26.612 200.551 27.0752C200.551 27.5188 200.151 27.9011 199.688 27.9011Z" fill="#43464E"/>
</svg>
